<svg width="24" height="25" viewBox="0 0 24 25" fill="CurrentColor" xmlns="http://www.w3.org/2000/svg">
<path fill-rule="evenodd" clip-rule="evenodd" d="M2.76779 9.512C2.34579 9.512 2.00279 9.169 2.00279 8.747C1.99979 4.892 4.39179 2.5 8.24379 2.5H15.7468C19.6078 2.5 21.9998 4.892 21.9998 8.744V16.244C21.9998 20.107 19.6078 22.5 15.7468 22.5H8.24679C4.40979 22.5 1.99979 20.107 1.99979 16.247V13.678C1.99979 13.261 2.33879 12.922 2.75579 12.922H2.76479V12.939C3.18679 12.939 3.52879 13.281 3.52979 13.703V13.705V16.247C3.52979 19.3 5.19979 20.97 8.24379 20.97H15.7438C18.7898 20.97 20.4698 19.29 20.4698 16.247V8.747C20.4698 5.713 18.7898 4.033 15.7468 4.033H8.24679C5.20379 4.033 3.53279 5.713 3.53279 8.747C3.53279 9.169 3.18979 9.512 2.76779 9.512ZM7.91389 13.2499H14.2699L11.7929 15.7169C11.4989 16.0089 11.4979 16.4829 11.7909 16.7769C12.0829 17.0719 12.5579 17.0699 12.8509 16.7789L16.6149 13.0309C16.6159 13.0309 16.6159 13.0309 16.6159 13.0299C16.6849 12.9619 16.7399 12.8789 16.7779 12.7869C16.8159 12.6959 16.8359 12.5989 16.8359 12.5009V12.4999C16.8359 12.4929 16.8342 12.4871 16.8324 12.4812C16.8309 12.4761 16.8293 12.4709 16.8289 12.4649C16.8249 12.3799 16.8109 12.2949 16.7779 12.2139C16.7439 12.1319 16.6929 12.0599 16.6339 11.9939C16.6306 11.9907 16.6285 11.987 16.6263 11.9833C16.6238 11.979 16.6212 11.9747 16.6169 11.9709C16.5479 11.9009 16.4649 11.8459 16.3739 11.8079C16.2809 11.7699 16.1849 11.7499 16.0859 11.7499H7.91389C7.49989 11.7499 7.16389 12.0859 7.16389 12.4999C7.16389 12.9139 7.49989 13.2499 7.91389 13.2499ZM14.1356 9.4989L12.8516 8.2209C12.7046 8.0749 12.5136 8.0019 12.3226 8.0019C12.1296 8.0019 11.9376 8.0749 11.7896 8.2229C11.4976 8.5169 11.4986 8.9909 11.7926 9.2829L13.0766 10.5609C13.3706 10.8529 13.8446 10.8529 14.1376 10.5599C14.4296 10.2659 14.4286 9.7909 14.1356 9.4989Z" />
</svg>
